<svg xmlns="http://www.w3.org/2000/svg" width="409" height="715" viewBox="0 0 409 715" version="1.1"><path d="" stroke="none" fill="#080404" fill-rule="evenodd"/><path d="M 189.308 1.010 C 182.070 3.925, 177.326 26.785, 180.065 45.546 C 181.464 55.123, 181.503 57.169, 180.467 66.500 C 179.953 71.128, 180.243 73.807, 181.734 78.216 L 183.666 83.931 180.351 93.571 C 174.326 111.090, 174.133 124.320, 179.627 143.250 C 180.091 144.849, 179.029 145.008, 167.317 145.088 C 160.268 145.136, 152.250 145.513, 149.500 145.927 C 146.750 146.340, 152.618 146.459, 162.540 146.191 L 180.580 145.704 182.279 150.030 C 183.214 152.408, 183.871 154.424, 183.739 154.508 C 183.608 154.592, 178.985 155.171, 173.467 155.795 C 163.141 156.961, 152.587 158.920, 153.220 159.553 C 153.417 159.750, 157.610 159.292, 162.539 158.534 C 167.468 157.777, 174.509 156.864, 178.187 156.506 L 184.873 155.854 186.510 159.020 C 188.559 162.981, 188.946 162.703, 178.924 164.470 C 163.544 167.181, 143.868 174.182, 141.668 177.725 C 141.403 178.151, 144.685 176.802, 148.962 174.726 C 163.637 167.602, 188.681 162.814, 191.451 166.602 C 192.761 168.394, 192.111 168.746, 179.636 172.999 C 167.813 177.030, 153.140 184.347, 151.474 187.042 C 151.131 187.598, 154.596 185.854, 159.175 183.167 C 164.126 180.261, 172.715 176.553, 180.366 174.019 L 193.231 169.757 195.521 172.628 C 197.126 174.641, 197.465 175.719, 196.655 176.234 C 194.993 177.292, 193.779 177.166, 194.493 176.011 C 194.850 175.434, 194.424 175.284, 193.468 175.651 C 192.378 176.069, 192.206 176.509, 192.952 176.970 C 193.573 177.354, 192.163 178.234, 189.786 178.945 C 181.464 181.437, 161.528 192.719, 159.421 196.128 C 159.034 196.754, 161.507 195.372, 164.918 193.056 C 175.489 185.877, 199 175.756, 199 178.384 C 199 179.665, 192.124 186.500, 190.835 186.500 C 190.468 186.500, 189.792 186.910, 189.333 187.410 C 188.838 187.952, 189.108 187.983, 190 187.487 C 190.825 187.029, 189.164 189.152, 186.309 192.205 C 153.989 226.765, 144.328 297.051, 161.564 372.231 C 169.135 405.254, 161.123 449.584, 144.205 468.277 C 130.534 483.383, 125.528 498.442, 124.355 528 C 122.716 569.316, 141.257 631.120, 163.872 659.721 C 166.142 662.592, 168 665.119, 168 665.337 C 168 668.565, 100.856 669.633, 85 666.658 C 54.900 661.010, 25.429 640.323, 35.762 632.095 C 48.773 621.736, 30.675 604.922, 14.160 612.027 C -5.813 620.619, -5 650.635, 15.814 673.116 C 42.765 702.226, 91.931 711.982, 164.049 702.530 C 173.907 701.238, 174.613 701.265, 176.500 703.014 C 180.200 706.442, 184.236 707.201, 199.664 707.369 C 212.896 707.514, 215.090 707.772, 216.882 709.393 C 223.986 715.822, 263.562 715.142, 270.019 708.481 L 273.297 705.098 277.241 708.474 C 286.399 716.313, 317.945 716.232, 330.020 708.339 C 333.212 706.253, 334.864 706.013, 347.700 705.769 C 360.288 705.530, 362.172 705.266, 364.680 703.395 C 371.870 698.030, 373.562 688.158, 368.703 679.912 C 365.091 673.782, 364.975 674.178, 373.336 664.133 C 412.723 616.810, 420.505 558.018, 394.520 504.105 C 384.230 482.757, 383.721 479.160, 387.496 454.500 C 395.967 399.169, 390.647 357.490, 367.966 301.504 L 360.675 283.507 359.945 267.504 C 358.608 238.205, 349.149 213.138, 330.937 190.630 C 319.632 176.659, 346.292 190.560, 360.115 205.845 C 362.928 208.955, 364.256 210.049, 363.065 208.276 C 359.026 202.259, 346.504 191.821, 337.011 186.558 C 326.894 180.949, 326.298 180.342, 328.265 177.653 C 330.609 174.446, 356.138 186.504, 367.845 196.347 C 373.987 201.511, 374.526 200.827, 368.500 195.515 C 361.673 189.496, 351.385 183.486, 340.014 178.875 C 330.191 174.891, 329.922 174.575, 332.707 170.324 C 334.679 167.315, 337.088 167.451, 353.897 171.522 C 359.615 172.907, 364.472 173.861, 364.692 173.642 C 365.243 173.090, 349.823 168.979, 342.399 167.698 L 336.298 166.645 338.899 162.308 L 341.500 157.972 346.500 158.556 C 354.459 159.487, 371.308 163.702, 378.100 166.463 C 381.530 167.856, 384.509 168.824, 384.720 168.613 C 386.324 167.009, 360.582 159.292, 347.750 157.530 C 345.137 157.171, 343 156.666, 343 156.409 C 343 156.151, 344.163 153.176, 345.585 149.799 C 353.743 130.415, 354.199 109.671, 346.897 90.031 C 344.935 84.752, 344.923 84.373, 346.565 79.154 C 347.863 75.027, 348.132 71.702, 347.700 65.123 C 347.334 59.540, 347.673 53.151, 348.662 47 C 351.376 30.119, 348.580 8.580, 342.942 2.942 C 336.772 -3.228, 330.242 1.121, 308.901 25.613 C 290.925 46.244, 291.816 45.697, 279.034 43.950 C 270.394 42.770, 250.231 43.134, 242.302 44.615 C 238.573 45.311, 236.207 43.123, 220.549 24.500 C 203.533 4.261, 195.755 -1.587, 189.308 1.010 M 215.750 109.572 C 208.380 113.570, 218.845 129, 228.926 129 C 241.011 129, 244.342 121.854, 236.003 113.816 C 229.729 107.768, 229.380 107.800, 228.545 114.484 C 227.533 122.587, 225.744 122.683, 226.160 114.613 L 226.500 107.996 222.500 108.038 C 220.300 108.061, 217.262 108.751, 215.750 109.572 M 300.860 108.750 C 300.783 109.162, 300.671 111.932, 300.610 114.905 C 300.449 122.830, 298.182 122.850, 297.799 114.930 L 297.500 108.726 293.088 112.113 C 290.662 113.976, 287.770 117.255, 286.662 119.400 L 284.648 123.300 287.340 125.616 C 297.527 134.379, 313 127.428, 313 114.089 C 313 109.693, 301.617 104.687, 300.860 108.750" stroke="none" fill="#040404" fill-rule="evenodd"/></svg>