<?xml version="1.0" encoding="UTF-8" standalone="no"?>
<svg
   width="1309"
   height="727"
   viewBox="0 0 1309 727"
   version="1.1"
   id="svg1"
   sodipodi:docname="trace.svg"
   xml:space="preserve"
   inkscape:version="1.4.4 (dcaf3e7d9e, 2026-05-05)"
   xmlns:inkscape="http://www.inkscape.org/namespaces/inkscape"
   xmlns:sodipodi="http://sodipodi.sourceforge.net/DTD/sodipodi-0.dtd"
   xmlns="http://www.w3.org/2000/svg"
   xmlns:svg="http://www.w3.org/2000/svg"><defs
     id="defs1" /><sodipodi:namedview
     id="namedview1"
     pagecolor="#505050"
     bordercolor="#ffffff"
     borderopacity="1"
     inkscape:showpageshadow="0"
     inkscape:pageopacity="0"
     inkscape:pagecheckerboard="1"
     inkscape:deskcolor="#505050"
     inkscape:zoom="0.5606801"
     inkscape:cx="123.9566"
     inkscape:cy="43.696932"
     inkscape:window-width="2400"
     inkscape:window-height="1288"
     inkscape:window-x="0"
     inkscape:window-y="0"
     inkscape:window-maximized="1"
     inkscape:current-layer="svg1" /><path
     id="path1"
     d="M 625.44922 -3.5449219 C 619.88596 -3.5012967 613.4177 -2.384348 605.88477 0.0078125 C 597.79593 0.61400147 589.27894 -1.3898923 581.55078 1.9453125 C 584.33227 57.352545 597.47585 113.70812 603.95508 169.5 C 616.53521 263.21984 637.26434 356.4117 632.4043 451.57422 C 632.70294 543.38244 632.81007 635.19153 633.01172 727 C 658.83905 721.68884 712.57897 743.66389 706.5918 704.49219 C 708.61855 583.52515 704.31204 462.31918 709.58594 341.5 C 725.83613 228.88444 744.10644 115.83964 757.81055 3.2871094 C 744.75611 -3.5635997 723.66163 2.2462146 707.60547 0.12109375 C 666.14766 -8.7585515 686.22912 54.721271 674.38477 77.732422 C 671.00571 107.4644 668.84959 124.63661 665.09766 83.449219 C 659.0527 48.40045 664.39201 -3.8502983 625.44922 -3.5449219 z M 1060.9453 -1.0351562 C 1044.6631 -1.8941353 1024.7213 2.3299947 1011.623 2.1269531 C 999.81241 123.28098 993.02241 245.22209 983.6875 366.75195 C 974.95702 486.80473 964.90168 606.85296 958 727.02539 C 966.82816 726.96127 975.65622 726.89601 984.48438 726.83203 C 981.44924 684.87315 988.02317 648.0862 1002.957 627.93359 C 1004.3768 626.01761 1005.2862 624.60272 1005.2109 624.45508 L 1005.209 624.45312 L 1005.207 624.45117 L 1005.2051 624.44922 L 1005.2051 624.44727 L 1005.2031 624.44727 L 1005.2012 624.44531 L 1005.1992 624.44531 L 1005.1973 624.44336 C 1005.1777 624.43971 1005.1403 624.45431 1005.0918 624.48828 C 1004.8015 624.69203 1004.626 624.77404 1004.5781 624.73633 L 1004.5762 624.73438 L 1004.5742 624.73242 L 1004.5723 624.73047 C 1004.5481 624.69363 1004.5907 624.59244 1004.707 624.43164 C 1004.9726 624.06651 1005.3638 623.76758 1005.5762 623.76758 C 1006.3221 623.76758 1010.3008 618.77727 1010.3008 617.8418 C 1010.3008 615.92265 996.69516 623.3121 990.57812 628.55469 C 988.83561 630.04779 987.51601 631.01007 987.38477 630.90039 L 987.38281 630.89844 L 987.38281 630.89648 L 987.38086 630.89453 C 987.37063 630.87753 987.37569 630.84526 987.39844 630.79883 C 988.61768 628.30935 1000.1531 620.06983 1004.9688 618.25 C 1006.3442 617.73078 1007.1601 617.08902 1006.8008 616.80859 C 1006.3691 616.47194 1006.4689 616.15095 1007.0996 615.8457 C 1007.6528 615.5777 1007.8999 615.68606 1007.6934 616.10742 C 1007.2802 616.95088 1007.9816 617.04411 1008.9434 616.27148 C 1009.4121 615.8954 1009.2159 615.10675 1008.2871 613.63672 L 1006.9629 611.54102 L 999.51758 614.65234 C 995.09023 616.50284 990.12082 619.21183 987.25586 621.33398 C 984.85457 623.11225 982.98292 624.32483 982.80078 624.23438 C 982.80006 624.23394 982.79558 624.23291 982.79492 624.23242 L 982.79297 624.23047 L 982.79297 624.22852 L 982.79102 624.22656 L 982.78906 624.22461 L 982.78906 624.22266 L 982.78711 624.2207 C 982.78392 624.20825 982.7872 624.18785 982.79883 624.16406 C 983.76288 622.19599 992.25418 616.85191 999.0957 613.9082 C 1006.3145 610.80238 1006.6897 610.54497 1005.9316 609.23633 C 1004.3287 606.47008 989.83757 609.9675 981.3457 615.16992 C 979.06412 616.56752 977.27098 617.51454 977.125 617.41016 L 977.12305 617.4082 L 977.12305 617.40625 L 977.12109 617.4043 L 977.11914 617.40234 L 977.11914 617.40039 L 977.11719 617.39844 L 977.11719 617.39648 L 977.11719 617.39453 L 977.11719 617.39258 C 977.117 617.38434 977.11901 617.37153 977.125 617.35938 C 978.39806 614.77204 989.78377 609.65944 998.68359 607.67969 C 1004.4829 606.38931 1004.2579 606.59181 1003.0723 603.69922 L 1002.125 601.38867 L 998.25781 601.86328 C 996.12949 602.12472 992.0534 602.79289 989.20117 603.3457 C 986.37123 603.89492 983.96134 604.22714 983.8125 604.0918 L 983.81055 604.0918 L 983.80859 604.08984 C 983.4423 603.62758 989.55012 602.19719 995.52539 601.3457 C 998.71845 600.89002 1001.3929 600.46564 1001.4688 600.4043 C 1001.5451 600.34295 1001.166 598.87134 1000.625 597.13477 L 999.64258 593.97656 L 989.20312 594.33203 C 984.53817 594.49105 981.42059 594.46285 981.26953 594.28516 C 981.26894 594.2843 981.26803 594.28017 981.26758 594.2793 L 981.26562 594.27734 C 981.26545 594.27646 981.26371 594.27237 981.26367 594.27148 L 981.26562 594.26953 C 981.26587 594.26863 981.26524 594.26458 981.26562 594.26367 C 981.26615 594.26276 981.26887 594.25874 981.26953 594.25781 L 981.27148 594.25586 C 981.30537 594.22213 981.43247 594.18108 981.65625 594.13867 C 983.24757 593.83634 987.88781 593.56044 991.9668 593.52539 C 998.74409 593.46697 999.35834 593.35129 999.08984 592.18359 C 995.91067 578.35964 996.02333 568.69785 999.50977 555.9043 L 1001.4277 548.86523 L 1000.3086 544.69141 C 999.44581 541.47166 999.27874 539.51444 999.57617 536.13477 C 1000.1757 529.32064 1000.1533 527.82775 999.34375 520.83398 C 997.75879 507.13344 1000.503 490.43928 1004.6914 488.31055 C 1008.422 486.41404 1012.923 490.68497 1022.7695 505.46484 C 1031.8302 519.06461 1033.1996 520.66256 1035.3574 520.1543 C 1039.9456 519.07277 1051.6136 518.80625 1056.6133 519.66797 C 1064.0097 520.94375 1063.4945 521.34348 1073.8965 506.27734 C 1086.2457 488.39164 1090.0234 485.21495 1093.5938 489.7207 C 1096.8562 493.83795 1098.4748 509.56885 1096.9043 521.89648 C 1096.332 526.38836 1096.1359 531.05378 1096.3477 535.13086 C 1096.5976 539.93529 1096.4425 542.36314 1095.6914 545.37695 C 1094.7412 549.18822 1094.7475 549.46523 1095.8828 553.32031 C 1100.1082 567.66276 1099.8438 582.8113 1095.123 596.9668 C 1094.3002 599.43291 1093.6289 601.60456 1093.6289 601.79297 C 1093.6289 601.98065 1094.8649 602.34916 1096.377 602.61133 C 1103.8023 603.89806 1118.6977 609.53373 1117.7695 610.70508 C 1117.6474 610.85916 1115.9243 610.15203 1113.9395 609.13477 C 1110.0092 607.1185 1100.2599 604.04121 1095.6543 603.36133 L 1092.7598 602.93555 L 1091.2559 606.10156 L 1089.75 609.26758 L 1093.2793 610.03711 C 1097.5753 610.97258 1106.4985 613.9758 1106.1797 614.37891 C 1106.0119 614.52434 1103.2165 613.8336 1099.9336 612.83008 C 1090.2069 609.85716 1088.813 609.7577 1087.6719 611.95508 C 1086.0603 615.05944 1086.2162 615.28983 1091.9004 618.19922 C 1098.4804 621.56648 1104.4342 625.95608 1108.3848 630.35156 C 1110.1419 632.30631 1110.9329 633.40294 1110.832 633.52734 L 1110.8301 633.5293 C 1110.7055 633.6206 1109.7393 632.80034 1108.0039 630.95898 C 1101.2295 623.77097 1086.4579 614.96467 1085.1016 617.30664 C 1083.9633 619.27033 1084.3078 619.71448 1090.1621 623.81055 C 1095.6553 627.65394 1102.9011 635.2759 1105.2383 639.66992 C 1105.4321 640.03407 1105.5117 640.23254 1105.4883 640.2793 L 1105.4863 640.28125 L 1105.4863 640.2832 L 1105.4844 640.28516 L 1105.4824 640.28516 L 1105.4805 640.28711 L 1105.4785 640.28906 L 1105.4766 640.28906 L 1105.4746 640.28906 C 1105.3501 640.3008 1104.6376 639.43819 1103.5312 637.89453 C 1095.5324 626.7324 1080.1067 616.58064 1086.6484 626.7832 C 1097.187 643.22006 1102.6599 661.52578 1103.4336 682.92188 L 1103.8555 694.60938 L 1108.0742 707.75195 C 1110.4755 715.23216 1112.5419 722.36179 1114.2832 729.26758 C 1160.4931 729.79962 1120.2991 652.26257 1128.8125 617.85938 C 1113.2634 414.66613 1099.5811 211.22933 1084.0352 8.0546875 C 1079.1672 1.8250302 1070.7147 -0.51976881 1060.9453 -1.0351562 z M 453.67969 -0.48242188 C 436.05852 -0.57559065 418.41649 0.3835717 401.03516 1.9335938 C 399.0924 243.60818 400.34907 485.31252 400 727 C 424.45757 721.39862 475.5978 742.49388 472.41406 708.75977 C 472.93356 616.34028 473.15484 523.92024 473.5 431.5 C 508.24386 436.19597 539.53027 413.16598 552.75 381.83203 C 590.6661 309.32727 576.12541 224.06341 577.51562 145.39648 C 573.71546 92.700919 558.06843 28.505234 506.19727 3.4199219 C 488.90076 0.75582492 471.30085 -0.3892531 453.67969 -0.48242188 z M 847.47852 0.041015625 C 846.32406 0.03464815 845.16763 0.43004692 844 1.5 C 797.47117 7.5784353 775.87586 59.223222 765.48047 99.5 C 752.4885 172.68373 761.44655 247.94947 758.37305 321.98633 C 760.09122 418.4098 754.85375 515.43343 762.05859 611.5 C 769.78719 655.7184 788.00014 712.24545 835.09375 726.7168 C 886.42347 736.56739 916.28555 682.20525 926.89453 640.44922 C 941.37105 592.54952 936.342 541.9194 938.13672 492.5293 C 912.7687 491.72322 850.35925 471.00511 864 517.17773 C 863.00395 538.7183 872.63398 605.60163 838.21094 589.0293 C 828.4488 544.55796 835.63309 496.32675 832.58203 450.52344 C 832.28727 351.69057 830.54091 252.80285 833.06836 154 C 861.7276 100.97403 868.69537 189.58132 864.17578 212.96875 C 859.22691 236.31129 867.72373 246.15061 891.44336 240.70312 C 966.82289 261.42755 930.92089 166.98247 934.30859 123.72266 C 926.87546 77.681284 909.17558 18.761476 860.25 2.9648438 C 855.70471 5.2025434 851.60157 0.063756606 847.47852 0.041015625 z M 289.21484 0.16210938 L 285.13477 1.5390625 C 234.61276 8.7830425 214.08971 66.8293 205.01758 110.58203 C 195.21377 181.56053 201.7582 254.68331 199.61523 326.5 C 201.14967 422.45006 196.40454 518.78054 203.41406 614.49609 C 213.43594 657.7984 229.75892 712.66225 277.21875 726.72461 C 330.08151 736.83263 358.64802 678.73798 370 636.375 C 385.99254 562.75521 375.68582 486.31408 379.02734 411.52539 C 377.52425 313.5777 381.44784 215.16453 374.69141 117.5 C 367.12394 69.92187 343.8268 7.0317184 289.21484 0.16210938 z M 93.433594 1.03125 C 90.912626 0.9341336 88.451714 1.0886238 86.134766 1.5390625 C 35.760988 8.9088797 14.910461 66.762819 5.9316406 110.66797 C -3.7841316 184.69975 2.8216741 260.82512 0.64648438 335.66602 C 2.1254219 428.87465 -2.4669764 522.45095 4.4003906 615.43164 C 14.846731 658.17816 30.825844 713.56786 78.494141 726.7168 C 129.72444 736.6372 158.81601 680.78053 169.89453 639.56445 C 173.89854 594.97166 199.83382 514.33832 165.62305 489.11523 C 129.37708 485.24034 91.634222 486.50644 106.01562 533.69141 C 119.12063 561.26358 88.247716 628.15043 74.755859 569.66211 C 74.378872 430.63991 71.95383 291.15082 76 152.4082 C 102.59803 102.67339 111.87061 191.54452 105.67773 213 C 95.718643 262.06808 210.31421 252.5788 179.9375 197.05078 C 180.98076 130.33773 175.86434 48.65034 115.50977 7.4355469 C 109.10395 3.8713541 100.9965 1.3225992 93.433594 1.03125 z M 1307.8848 1.3613281 C 1249.5631 -1.0339276 1190.8867 -0.94828543 1132.5703 1.5703125 C 1136.0503 42.324359 1118.2896 107.45551 1141.0176 134.82227 C 1162.6138 135.86015 1194.4274 126.14568 1184.0176 158.95117 C 1184.178 348.13428 1184.3387 537.31689 1184.5 726.5 C 1207.799 721.2501 1256.1442 741.24219 1257.4062 712.08008 C 1258.3269 519.73301 1257.8761 327.38186 1258 135.0332 C 1273.6787 132.70647 1297.8153 138.78182 1308.5117 131.50586 C 1308.3251 88.127987 1309.7801 44.683341 1307.8848 1.3613281 z M 483.5 134.11328 C 498.39685 133.54652 515.40058 175.68676 504.5 193.53516 C 496.41626 223.82654 527.158 301.98704 473.5 295.5 C 473.41467 268.75 473.32944 242 473.24414 215.25 C 473.16836 191.49382 473.09338 167.7386 473.01758 143.98242 C 476.04415 137.17868 479.70276 134.25775 483.5 134.11328 z M 289.06641 134.6543 C 295.9873 134.39094 302.29842 146.23303 303.61523 151.5 C 306.06739 273.24246 304.2755 395.06232 303.50781 516.82812 C 305.84956 538.23176 307.15514 625.37356 275.44727 578.57031 C 270.26756 476.36145 274.23632 372.83975 273.10156 270.14258 C 279.2815 226.7573 260.77791 175.26576 284.23242 137 C 285.84057 135.42028 287.46928 134.71507 289.06641 134.6543 z M 1070.5254 565.89648 C 1069.8463 565.92085 1069.3537 566.24847 1069.2441 566.99023 C 1069.1996 567.2911 1069.133 569.31329 1069.0977 571.48438 C 1069.0045 577.27174 1067.6943 577.28567 1067.4727 571.50195 L 1067.2988 566.97266 L 1064.7461 569.44531 C 1063.3423 570.8058 1061.6685 573.20116 1061.0273 574.76758 L 1059.8613 577.61523 L 1061.4199 579.30664 C 1067.3148 585.70597 1076.2676 580.6297 1076.2676 570.88867 C 1076.2676 568.48098 1072.5628 565.8234 1070.5254 565.89648 z M 1026.2129 566.43945 L 1023.8984 566.46875 C 1022.6254 566.48555 1020.8691 566.99029 1019.9941 567.58984 C 1015.7294 570.50945 1021.7837 581.77734 1027.6172 581.77734 C 1034.6103 581.77734 1036.5384 576.55934 1031.7129 570.68945 C 1028.0824 566.2728 1027.8797 566.29663 1027.3965 571.17773 C 1026.8109 577.09509 1025.7769 577.16474 1026.0176 571.27148 L 1026.2129 566.43945 z " /></svg>
